<?xml version="1.0" encoding="utf-8"?>
<!-- Generator: Adobe Illustrator 22.1.0, SVG Export Plug-In . SVG Version: 6.00 Build 0)  -->
<svg version="1.1" id="Layer_1" xmlns="http://www.w3.org/2000/svg" xmlns:xlink="http://www.w3.org/1999/xlink" x="0px" y="0px"
	 viewBox="0 0 1000 800" style="enable-background:new 0 0 1000 800;" xml:space="preserve">
<style type="text/css">
	.st0{fill:#F3E0DB;}
	.st1{fill:#FDCB65;}
	.st2{fill:none;}
	.st3{fill:#020000;}
	.st4{font-family:'Mirador-BoldDEMO';}
	.st5{font-size:8px;}
	.st6{fill:#FB8D45;}
	.st7{fill:#ED3D2A;}
	.st8{fill:#E7542D;stroke:#000000;stroke-width:0.1;stroke-miterlimit:10;}
	.st9{fill:#FFFFFF;stroke:#E7542D;stroke-miterlimit:10;}
	.st10{font-size:10.5154px;}
	.st11{fill:#F74431;}
	.st12{font-size:15px;}
	.st13{opacity:0.5;fill:#F74431;stroke:#F74431;stroke-miterlimit:10;}
	.st14{font-size:10px;}
	.st15{opacity:0.3;}
	.st16{opacity:0.3;fill:#FB8D45;}
	.st17{opacity:0.3;fill:#FDCB65;}
	.st18{font-family:'Mirador-BookDEMO';}
	.st19{font-size:7px;}
</style>
<rect x="-1" y="1" class="st0" width="1002" height="798"/>
<circle class="st1" cx="755.5" cy="515.1" r="3.2"/>
<circle class="st1" cx="732.1" cy="515.1" r="3.2"/>
<circle class="st1" cx="747.7" cy="515.1" r="3.2"/>
<circle class="st1" cx="739.9" cy="515.1" r="3.2"/>
<circle class="st1" cx="763.4" cy="515.1" r="3.2"/>
<circle class="st1" cx="716.5" cy="515.1" r="3.2"/>
<circle class="st1" cx="724.3" cy="515.1" r="3.2"/>
<circle class="st1" cx="786.8" cy="515.1" r="3.2"/>
<circle class="st1" cx="779" cy="515.1" r="3.2"/>
<circle class="st1" cx="771.2" cy="515.1" r="3.2"/>
<circle class="st1" cx="794.6" cy="515.1" r="3.2"/>
<circle class="st1" cx="700.9" cy="515.1" r="3.2"/>
<circle class="st1" cx="708.7" cy="515.1" r="3.2"/>
<circle class="st1" cx="685.2" cy="515.1" r="3.2"/>
<circle class="st1" cx="693" cy="515.1" r="3.2"/>
<g>
	<circle class="st1" cx="755.3" cy="620.8" r="3.2"/>
</g>
<g>
	<circle class="st1" cx="732" cy="620.8" r="3.2"/>
</g>
<g>
	<circle class="st1" cx="747.5" cy="620.8" r="3.2"/>
</g>
<g>
	<circle class="st1" cx="739.7" cy="620.8" r="3.2"/>
</g>
<g>
	<circle class="st1" cx="763" cy="620.8" r="3.2"/>
</g>
<g>
	<circle class="st1" cx="716.4" cy="620.8" r="3.2"/>
</g>
<g>
	<circle class="st1" cx="693.1" cy="620.8" r="3.2"/>
</g>
<g>
	<circle class="st1" cx="708.7" cy="620.8" r="3.2"/>
</g>
<g>
	<circle class="st1" cx="700.9" cy="620.8" r="3.2"/>
</g>
<g>
	<circle class="st1" cx="724.2" cy="620.8" r="3.2"/>
</g>
<g>
	<circle class="st1" cx="677.6" cy="620.8" r="3.2"/>
</g>
<g>
	<circle class="st1" cx="654.3" cy="620.8" r="3.2"/>
</g>
<g>
	<circle class="st1" cx="669.8" cy="620.8" r="3.2"/>
</g>
<g>
	<circle class="st1" cx="662.1" cy="620.8" r="3.2"/>
</g>
<g>
	<circle class="st1" cx="685.4" cy="620.8" r="3.2"/>
</g>
<g>
	<circle class="st1" cx="638.8" cy="620.8" r="3.2"/>
</g>
<g>
	<circle class="st1" cx="615.5" cy="620.8" r="3.2"/>
</g>
<g>
	<circle class="st1" cx="631" cy="620.8" r="3.2"/>
</g>
<g>
	<circle class="st1" cx="623.2" cy="620.8" r="3.2"/>
</g>
<g>
	<circle class="st1" cx="646.5" cy="620.8" r="3.2"/>
</g>
<g>
	<circle class="st1" cx="786.3" cy="620.8" r="3.2"/>
</g>
<g>
	<circle class="st1" cx="778.6" cy="620.8" r="3.2"/>
</g>
<g>
	<circle class="st1" cx="770.8" cy="620.8" r="3.2"/>
</g>
<g>
	<circle class="st1" cx="794.1" cy="620.8" r="3.2"/>
</g>
<circle class="st1" cx="568.9" cy="620.8" r="3.2"/>
<circle class="st1" cx="545.6" cy="620.8" r="3.2"/>
<circle class="st1" cx="561.1" cy="620.8" r="3.2"/>
<circle class="st1" cx="553.3" cy="620.8" r="3.2"/>
<circle class="st1" cx="576.6" cy="620.8" r="3.2"/>
<circle class="st1" cx="530" cy="620.8" r="3.2"/>
<circle class="st1" cx="537.8" cy="620.8" r="3.2"/>
<circle class="st1" cx="599.9" cy="620.8" r="3.2"/>
<circle class="st1" cx="592.2" cy="620.8" r="3.2"/>
<circle class="st1" cx="584.4" cy="620.8" r="3.2"/>
<circle class="st1" cx="607.7" cy="620.8" r="3.2"/>
<circle class="st1" cx="755.1" cy="550.6" r="3.2"/>
<circle class="st1" cx="731.7" cy="550.6" r="3.2"/>
<circle class="st1" cx="747.3" cy="550.6" r="3.2"/>
<circle class="st1" cx="739.5" cy="550.6" r="3.2"/>
<circle class="st1" cx="762.9" cy="550.6" r="3.2"/>
<circle class="st1" cx="716.1" cy="550.6" r="3.2"/>
<circle class="st1" cx="723.9" cy="550.6" r="3.2"/>
<circle class="st1" cx="786.2" cy="550.6" r="3.2"/>
<circle class="st1" cx="778.4" cy="550.6" r="3.2"/>
<circle class="st1" cx="770.7" cy="550.6" r="3.2"/>
<circle class="st1" cx="794" cy="550.6" r="3.2"/>
<circle class="st1" cx="708.3" cy="550.6" r="3.2"/>
<circle class="st1" cx="685" cy="550.6" r="3.2"/>
<circle class="st1" cx="700.5" cy="550.6" r="3.2"/>
<circle class="st1" cx="692.7" cy="550.6" r="3.2"/>
<circle class="st1" cx="669.4" cy="550.6" r="3.2"/>
<circle class="st1" cx="677.2" cy="550.6" r="3.2"/>
<circle class="st1" cx="661.6" cy="550.6" r="3.2"/>
<circle class="st1" cx="754.5" cy="585.2" r="3.2"/>
<circle class="st1" cx="730.8" cy="585.2" r="3.2"/>
<circle class="st1" cx="746.6" cy="585.2" r="3.2"/>
<circle class="st1" cx="738.7" cy="585.2" r="3.2"/>
<circle class="st1" cx="762.4" cy="585.2" r="3.2"/>
<circle class="st1" cx="715" cy="585.2" r="3.2"/>
<circle class="st1" cx="691.3" cy="585.2" r="3.2"/>
<circle class="st1" cx="707.1" cy="585.2" r="3.2"/>
<circle class="st1" cx="699.2" cy="585.2" r="3.2"/>
<circle class="st1" cx="722.9" cy="585.2" r="3.2"/>
<circle class="st1" cx="675.5" cy="585.2" r="3.2"/>
<circle class="st1" cx="651.8" cy="585.2" r="3.2"/>
<circle class="st1" cx="667.6" cy="585.2" r="3.2"/>
<circle class="st1" cx="659.7" cy="585.2" r="3.2"/>
<circle class="st1" cx="683.4" cy="585.2" r="3.2"/>
<circle class="st1" cx="636" cy="585.2" r="3.2"/>
<circle class="st1" cx="612.2" cy="585.2" r="3.2"/>
<circle class="st1" cx="628.1" cy="585.2" r="3.2"/>
<circle class="st1" cx="620.1" cy="585.2" r="3.2"/>
<circle class="st1" cx="643.9" cy="585.2" r="3.2"/>
<circle class="st1" cx="786.1" cy="585.2" r="3.2"/>
<circle class="st1" cx="778.2" cy="585.2" r="3.2"/>
<circle class="st1" cx="770.3" cy="585.2" r="3.2"/>
<g>
	<circle class="st1" cx="794.1" cy="585.2" r="3.2"/>
</g>
<circle class="st1" cx="564.8" cy="585.2" r="3.2"/>
<circle class="st1" cx="541.1" cy="585.2" r="3.2"/>
<circle class="st1" cx="556.9" cy="585.2" r="3.2"/>
<circle class="st1" cx="549" cy="585.2" r="3.2"/>
<circle class="st1" cx="572.7" cy="585.2" r="3.2"/>
<circle class="st1" cx="525.3" cy="585.2" r="3.2"/>
<circle class="st1" cx="533.2" cy="585.2" r="3.2"/>
<circle class="st1" cx="596.4" cy="585.2" r="3.2"/>
<circle class="st1" cx="588.5" cy="585.2" r="3.2"/>
<circle class="st1" cx="580.6" cy="585.2" r="3.2"/>
<circle class="st1" cx="604.3" cy="585.2" r="3.2"/>
<circle class="st1" cx="517.4" cy="585.2" r="3.2"/>
<rect x="810.1" y="582.5" class="st2" width="43.9" height="6.1"/>
<text transform="matrix(1 0 0 1 810.1227 587.9075)" class="st3 st4 st5">Hispanic</text>
<rect x="810.2" y="618.3" class="st2" width="34.7" height="6.1"/>
<text transform="matrix(1 0 0 1 810.1555 623.676)" class="st3 st4 st5">Black</text>
<rect x="810.2" y="548.1" class="st2" width="81.9" height="6.1"/>
<text transform="matrix(1 0 0 1 810.1551 553.4319)" class="st3 st4 st5">Asian-American</text>
<rect x="809.2" y="513.2" class="st2" width="29.8" height="5.5"/>
<text transform="matrix(1 0 0 1 809.2355 518.5563)" class="st4 st5">White</text>
<g>
	<circle class="st6" cx="514.5" cy="620.8" r="3.2"/>
</g>
<g>
	<circle class="st6" cx="522.3" cy="620.8" r="3.2"/>
</g>
<circle class="st6" cx="467.9" cy="620.8" r="3.2"/>
<circle class="st6" cx="444.6" cy="620.8" r="3.2"/>
<circle class="st6" cx="460.1" cy="620.8" r="3.2"/>
<circle class="st6" cx="452.3" cy="620.8" r="3.2"/>
<circle class="st6" cx="475.6" cy="620.8" r="3.2"/>
<circle class="st6" cx="429" cy="620.8" r="3.2"/>
<circle class="st6" cx="436.8" cy="620.8" r="3.2"/>
<circle class="st6" cx="499" cy="620.8" r="3.2"/>
<circle class="st6" cx="491.2" cy="620.8" r="3.2"/>
<circle class="st6" cx="483.4" cy="620.8" r="3.2"/>
<circle class="st6" cx="506.7" cy="620.8" r="3.2"/>
<circle class="st6" cx="501.6" cy="585.2" r="3.2"/>
<circle class="st6" cx="509.5" cy="585.2" r="3.2"/>
<circle class="st6" cx="454.1" cy="585.2" r="3.2"/>
<circle class="st6" cx="430.4" cy="585.2" r="3.2"/>
<circle class="st6" cx="446.2" cy="585.2" r="3.2"/>
<circle class="st6" cx="438.3" cy="585.2" r="3.2"/>
<circle class="st6" cx="462" cy="585.2" r="3.2"/>
<circle class="st6" cx="414.6" cy="585.2" r="3.2"/>
<circle class="st6" cx="422.5" cy="585.2" r="3.2"/>
<circle class="st6" cx="485.8" cy="585.2" r="3.2"/>
<circle class="st6" cx="477.9" cy="585.2" r="3.2"/>
<circle class="st6" cx="470" cy="585.2" r="3.2"/>
<circle class="st6" cx="493.7" cy="585.2" r="3.2"/>
<circle class="st6" cx="406.7" cy="585.2" r="3.2"/>
<circle class="st6" cx="638.3" cy="515.1" r="3.2"/>
<circle class="st6" cx="614.9" cy="515.1" r="3.2"/>
<circle class="st6" cx="630.5" cy="515.1" r="3.2"/>
<circle class="st6" cx="622.7" cy="515.1" r="3.2"/>
<circle class="st6" cx="646.2" cy="515.1" r="3.2"/>
<circle class="st6" cx="599.3" cy="515.1" r="3.2"/>
<circle class="st6" cx="607.1" cy="515.1" r="3.2"/>
<circle class="st6" cx="669.6" cy="515.1" r="3.2"/>
<circle class="st6" cx="661.8" cy="515.1" r="3.2"/>
<circle class="st6" cx="654" cy="515.1" r="3.2"/>
<circle class="st6" cx="677.4" cy="515.1" r="3.2"/>
<circle class="st6" cx="583.7" cy="515.1" r="3.2"/>
<circle class="st6" cx="591.5" cy="515.1" r="3.2"/>
<circle class="st6" cx="568" cy="515.1" r="3.2"/>
<circle class="st6" cx="575.8" cy="515.1" r="3.2"/>
<circle class="st6" cx="560.2" cy="515.1" r="3.2"/>
<circle class="st6" cx="544.6" cy="515.1" r="3.2"/>
<circle class="st6" cx="552.4" cy="515.1" r="3.2"/>
<circle class="st6" cx="529" cy="515.1" r="3.2"/>
<circle class="st6" cx="536.8" cy="515.1" r="3.2"/>
<circle class="st7" cx="513.3" cy="515.1" r="3.2"/>
<circle class="st7" cx="521.1" cy="515.1" r="3.2"/>
<circle class="st7" cx="505.5" cy="515.1" r="3.2"/>
<circle class="st7" cx="489.9" cy="515.1" r="3.2"/>
<circle class="st7" cx="497.7" cy="515.1" r="3.2"/>
<circle class="st7" cx="474.3" cy="515.1" r="3.2"/>
<circle class="st7" cx="482.1" cy="515.1" r="3.2"/>
<rect x="703.5" y="466.6" class="st8" width="93.1" height="24.5"/>
<rect x="700.3" y="461.4" class="st9" width="93.1" height="24.5"/>
<rect x="716.4" y="469.4" class="st2" width="63.4" height="7.2"/>
<text transform="matrix(1 0 0 1 717.8876 476.4791)" class="st4 st10">Mississippi</text>
<circle class="st7" cx="458.6" cy="515.1" r="3.2"/>
<circle class="st7" cx="466.5" cy="515.1" r="3.2"/>
<circle class="st7" cx="443" cy="515.1" r="3.2"/>
<circle class="st7" cx="450.8" cy="515.1" r="3.2"/>
<circle class="st7" cx="427.4" cy="515.1" r="3.2"/>
<circle class="st7" cx="435.2" cy="515.1" r="3.2"/>
<circle class="st7" cx="419.6" cy="515.1" r="3.2"/>
<circle class="st7" cx="403.9" cy="515.1" r="3.2"/>
<circle class="st7" cx="411.8" cy="515.1" r="3.2"/>
<circle class="st7" cx="388.3" cy="515.1" r="3.2"/>
<circle class="st7" cx="396.1" cy="515.1" r="3.2"/>
<circle class="st6" cx="614.8" cy="550.6" r="3.2"/>
<circle class="st6" cx="591.5" cy="550.6" r="3.2"/>
<circle class="st6" cx="607" cy="550.6" r="3.2"/>
<circle class="st6" cx="599.3" cy="550.6" r="3.2"/>
<circle class="st6" cx="622.6" cy="550.6" r="3.2"/>
<circle class="st6" cx="575.9" cy="550.6" r="3.2"/>
<circle class="st6" cx="583.7" cy="550.6" r="3.2"/>
<circle class="st6" cx="646" cy="550.6" r="3.2"/>
<circle class="st6" cx="638.2" cy="550.6" r="3.2"/>
<circle class="st6" cx="630.4" cy="550.6" r="3.2"/>
<circle class="st6" cx="653.8" cy="550.6" r="3.2"/>
<circle class="st6" cx="568.1" cy="550.6" r="3.2"/>
<circle class="st6" cx="544.7" cy="550.6" r="3.2"/>
<circle class="st6" cx="560.3" cy="550.6" r="3.2"/>
<circle class="st6" cx="552.5" cy="550.6" r="3.2"/>
<circle class="st6" cx="529.1" cy="550.6" r="3.2"/>
<circle class="st6" cx="536.9" cy="550.6" r="3.2"/>
<circle class="st6" cx="521.3" cy="550.6" r="3.2"/>
<circle class="st6" cx="474.6" cy="550.6" r="3.2"/>
<circle class="st6" cx="451.2" cy="550.6" r="3.2"/>
<circle class="st6" cx="466.8" cy="550.6" r="3.2"/>
<circle class="st6" cx="459" cy="550.6" r="3.2"/>
<circle class="st6" cx="482.4" cy="550.6" r="3.2"/>
<circle class="st6" cx="435.6" cy="550.6" r="3.2"/>
<circle class="st6" cx="443.4" cy="550.6" r="3.2"/>
<circle class="st6" cx="505.8" cy="550.6" r="3.2"/>
<circle class="st6" cx="498" cy="550.6" r="3.2"/>
<circle class="st6" cx="490.2" cy="550.6" r="3.2"/>
<circle class="st6" cx="513.6" cy="550.6" r="3.2"/>
<circle class="st6" cx="427.9" cy="550.6" r="3.2"/>
<circle class="st6" cx="404.5" cy="550.6" r="3.2"/>
<circle class="st6" cx="420.1" cy="550.6" r="3.2"/>
<circle class="st6" cx="412.3" cy="550.6" r="3.2"/>
<circle class="st6" cx="388.9" cy="550.6" r="3.2"/>
<circle class="st6" cx="396.7" cy="550.6" r="3.2"/>
<circle class="st6" cx="381.1" cy="550.6" r="3.2"/>
<circle class="st6" cx="373.3" cy="550.6" r="3.2"/>
<circle class="st6" cx="365.5" cy="550.6" r="3.2"/>
<g>
	<circle class="st6" cx="413.5" cy="620.8" r="3.2"/>
</g>
<g>
	<circle class="st6" cx="421.3" cy="620.8" r="3.2"/>
</g>
<circle class="st6" cx="366.9" cy="620.8" r="3.2"/>
<circle class="st6" cx="343.6" cy="620.8" r="3.2"/>
<circle class="st6" cx="359.1" cy="620.8" r="3.2"/>
<circle class="st6" cx="351.4" cy="620.8" r="3.2"/>
<circle class="st6" cx="374.7" cy="620.8" r="3.2"/>
<circle class="st6" cx="328.1" cy="620.8" r="3.2"/>
<circle class="st6" cx="335.8" cy="620.8" r="3.2"/>
<circle class="st6" cx="398" cy="620.8" r="3.2"/>
<circle class="st6" cx="390.2" cy="620.8" r="3.2"/>
<circle class="st6" cx="382.4" cy="620.8" r="3.2"/>
<circle class="st6" cx="405.7" cy="620.8" r="3.2"/>
<circle class="st6" cx="320.3" cy="620.8" r="3.2"/>
<g>
	<circle class="st7" cx="304.8" cy="620.8" r="3.2"/>
</g>
<g>
	<circle class="st7" cx="312.5" cy="620.8" r="3.2"/>
</g>
<circle class="st7" cx="258.2" cy="620.8" r="3.2"/>
<circle class="st7" cx="234.9" cy="620.8" r="3.2"/>
<circle class="st7" cx="250.4" cy="620.8" r="3.2"/>
<circle class="st7" cx="242.6" cy="620.8" r="3.2"/>
<circle class="st7" cx="265.9" cy="620.8" r="3.2"/>
<circle class="st7" cx="219.3" cy="620.8" r="3.2"/>
<circle class="st7" cx="227.1" cy="620.8" r="3.2"/>
<circle class="st7" cx="289.2" cy="620.8" r="3.2"/>
<circle class="st7" cx="281.5" cy="620.8" r="3.2"/>
<circle class="st7" cx="273.7" cy="620.8" r="3.2"/>
<circle class="st7" cx="297" cy="620.8" r="3.2"/>
<g>
	<circle class="st7" cx="203.8" cy="620.8" r="3.2"/>
</g>
<g>
	<circle class="st7" cx="211.6" cy="620.8" r="3.2"/>
</g>
<circle class="st7" cx="157.2" cy="620.8" r="3.2"/>
<circle class="st7" cx="133.9" cy="620.8" r="3.2"/>
<circle class="st7" cx="149.4" cy="620.8" r="3.2"/>
<circle class="st7" cx="141.7" cy="620.8" r="3.2"/>
<circle class="st7" cx="165" cy="620.8" r="3.2"/>
<circle class="st7" cx="118.4" cy="620.8" r="3.2"/>
<circle class="st7" cx="126.1" cy="620.8" r="3.2"/>
<circle class="st7" cx="188.3" cy="620.8" r="3.2"/>
<circle class="st7" cx="180.5" cy="620.8" r="3.2"/>
<circle class="st7" cx="172.7" cy="620.8" r="3.2"/>
<circle class="st7" cx="196" cy="620.8" r="3.2"/>
<circle class="st7" cx="110.6" cy="620.8" r="3.2"/>
<circle class="st6" cx="398.8" cy="585.2" r="3.2"/>
<circle class="st6" cx="367.2" cy="585.2" r="3.2"/>
<circle class="st6" cx="343.5" cy="585.2" r="3.2"/>
<circle class="st6" cx="359.3" cy="585.2" r="3.2"/>
<circle class="st6" cx="351.4" cy="585.2" r="3.2"/>
<circle class="st6" cx="375.1" cy="585.2" r="3.2"/>
<circle class="st6" cx="327.7" cy="585.2" r="3.2"/>
<circle class="st6" cx="335.6" cy="585.2" r="3.2"/>
<circle class="st6" cx="390.9" cy="585.2" r="3.2"/>
<circle class="st6" cx="383" cy="585.2" r="3.2"/>
<circle class="st6" cx="319.8" cy="585.2" r="3.2"/>
<circle class="st6" cx="304" cy="585.2" r="3.2"/>
<circle class="st6" cx="311.9" cy="585.2" r="3.2"/>
<circle class="st6" cx="256.5" cy="585.2" r="3.2"/>
<circle class="st6" cx="232.8" cy="585.2" r="3.2"/>
<circle class="st6" cx="248.6" cy="585.2" r="3.2"/>
<circle class="st6" cx="240.7" cy="585.2" r="3.2"/>
<circle class="st6" cx="264.4" cy="585.2" r="3.2"/>
<circle class="st6" cx="217" cy="585.2" r="3.2"/>
<circle class="st6" cx="224.9" cy="585.2" r="3.2"/>
<circle class="st6" cx="288.1" cy="585.2" r="3.2"/>
<circle class="st6" cx="280.2" cy="585.2" r="3.2"/>
<circle class="st6" cx="272.3" cy="585.2" r="3.2"/>
<circle class="st6" cx="296" cy="585.2" r="3.2"/>
<circle class="st6" cx="209.1" cy="585.2" r="3.2"/>
<circle class="st6" cx="201.2" cy="585.2" r="3.2"/>
<circle class="st6" cx="177.5" cy="585.2" r="3.2"/>
<circle class="st6" cx="153.8" cy="585.2" r="3.2"/>
<circle class="st6" cx="169.6" cy="585.2" r="3.2"/>
<circle class="st6" cx="161.7" cy="585.2" r="3.2"/>
<circle class="st6" cx="185.4" cy="585.2" r="3.2"/>
<circle class="st6" cx="138" cy="585.2" r="3.2"/>
<circle class="st6" cx="145.9" cy="585.2" r="3.2"/>
<circle class="st6" cx="193.3" cy="585.2" r="3.2"/>
<circle class="st6" cx="130" cy="585.2" r="3.2"/>
<circle class="st6" cx="122.1" cy="585.2" r="3.2"/>
<circle class="st1" cx="747" cy="409.6" r="3.2"/>
<circle class="st1" cx="724.1" cy="409.6" r="3.2"/>
<circle class="st1" cx="739.4" cy="409.6" r="3.2"/>
<circle class="st1" cx="731.8" cy="409.6" r="3.2"/>
<circle class="st1" cx="762.3" cy="409.6" r="3.2"/>
<circle class="st1" cx="708.8" cy="409.6" r="3.2"/>
<circle class="st1" cx="685.9" cy="409.6" r="3.2"/>
<circle class="st1" cx="701.2" cy="409.6" r="3.2"/>
<circle class="st1" cx="693.6" cy="409.6" r="3.2"/>
<circle class="st1" cx="716.5" cy="409.6" r="3.2"/>
<circle class="st1" cx="670.6" cy="409.6" r="3.2"/>
<circle class="st1" cx="647.7" cy="409.6" r="3.2"/>
<circle class="st1" cx="663" cy="409.6" r="3.2"/>
<circle class="st1" cx="655.4" cy="409.6" r="3.2"/>
<circle class="st1" cx="678.3" cy="409.6" r="3.2"/>
<circle class="st1" cx="632.5" cy="409.6" r="3.2"/>
<circle class="st1" cx="609.5" cy="409.6" r="3.2"/>
<circle class="st1" cx="624.8" cy="409.6" r="3.2"/>
<circle class="st1" cx="617.2" cy="409.6" r="3.2"/>
<circle class="st1" cx="640.1" cy="409.6" r="3.2"/>
<circle class="st1" cx="785.2" cy="409.6" r="3.2"/>
<circle class="st1" cx="777.6" cy="409.6" r="3.2"/>
<circle class="st1" cx="769.9" cy="409.6" r="3.2"/>
<circle class="st1" cx="792.9" cy="409.6" r="3.2"/>
<circle class="st6" cx="601.9" cy="409.6" r="3.2"/>
<circle class="st6" cx="579" cy="409.6" r="3.2"/>
<circle class="st6" cx="594.3" cy="409.6" r="3.2"/>
<circle class="st6" cx="586.6" cy="409.6" r="3.2"/>
<circle class="st6" cx="563.7" cy="409.6" r="3.2"/>
<circle class="st6" cx="540.8" cy="409.6" r="3.2"/>
<circle class="st6" cx="556.1" cy="409.6" r="3.2"/>
<circle class="st6" cx="548.4" cy="409.6" r="3.2"/>
<circle class="st6" cx="571.4" cy="409.6" r="3.2"/>
<circle class="st1" cx="753.2" cy="313.6" r="3.2"/>
<circle class="st1" cx="729.8" cy="313.6" r="3.2"/>
<circle class="st1" cx="745.4" cy="313.6" r="3.2"/>
<circle class="st1" cx="737.6" cy="313.6" r="3.2"/>
<circle class="st1" cx="761" cy="313.6" r="3.2"/>
<circle class="st1" cx="714.2" cy="313.6" r="3.2"/>
<circle class="st1" cx="722" cy="313.6" r="3.2"/>
<circle class="st1" cx="784.4" cy="313.6" r="3.2"/>
<circle class="st1" cx="776.6" cy="313.6" r="3.2"/>
<circle class="st1" cx="768.8" cy="313.6" r="3.2"/>
<circle class="st1" cx="792.2" cy="313.6" r="3.2"/>
<circle class="st1" cx="753.4" cy="345.5" r="3.2"/>
<circle class="st1" cx="730.2" cy="345.5" r="3.2"/>
<circle class="st1" cx="745.7" cy="345.5" r="3.2"/>
<circle class="st1" cx="737.9" cy="345.5" r="3.2"/>
<circle class="st1" cx="761.1" cy="345.5" r="3.2"/>
<circle class="st1" cx="714.7" cy="345.5" r="3.2"/>
<circle class="st1" cx="722.5" cy="345.5" r="3.2"/>
<circle class="st1" cx="784.3" cy="345.5" r="3.2"/>
<circle class="st1" cx="776.6" cy="345.5" r="3.2"/>
<circle class="st1" cx="768.9" cy="345.5" r="3.2"/>
<circle class="st1" cx="792.1" cy="345.5" r="3.2"/>
<circle class="st1" cx="707" cy="345.5" r="3.2"/>
<circle class="st6" cx="690.8" cy="313.6" r="3.2"/>
<circle class="st6" cx="706.4" cy="313.6" r="3.2"/>
<circle class="st6" cx="698.6" cy="313.6" r="3.2"/>
<circle class="st6" cx="675.2" cy="313.6" r="3.2"/>
<circle class="st6" cx="651.8" cy="313.6" r="3.2"/>
<circle class="st6" cx="667.4" cy="313.6" r="3.2"/>
<circle class="st6" cx="659.6" cy="313.6" r="3.2"/>
<circle class="st6" cx="683" cy="313.6" r="3.2"/>
<circle class="st6" cx="683.8" cy="345.5" r="3.2"/>
<circle class="st6" cx="699.3" cy="345.5" r="3.2"/>
<circle class="st6" cx="691.5" cy="345.5" r="3.2"/>
<circle class="st6" cx="668.3" cy="345.5" r="3.2"/>
<circle class="st6" cx="645.1" cy="345.5" r="3.2"/>
<circle class="st6" cx="660.6" cy="345.5" r="3.2"/>
<circle class="st6" cx="652.8" cy="345.5" r="3.2"/>
<circle class="st6" cx="676" cy="345.5" r="3.2"/>
<circle class="st6" cx="637.4" cy="345.5" r="3.2"/>
<circle class="st6" cx="614.2" cy="345.5" r="3.2"/>
<circle class="st6" cx="629.6" cy="345.5" r="3.2"/>
<circle class="st6" cx="621.9" cy="345.5" r="3.2"/>
<circle class="st1" cx="754.7" cy="409.6" r="3.2"/>
<rect x="703" y="265.6" class="st8" width="93.1" height="24.5"/>
<rect x="699.7" y="260.4" class="st9" width="93.1" height="24.5"/>
<rect x="718.5" y="268.4" class="st2" width="57.6" height="7.2"/>
<text transform="matrix(1 0 0 1 720.0096 275.4806)" class="st4 st10">California</text>
<rect x="809.2" y="406" class="st2" width="60.8" height="5.4"/>
<text transform="matrix(1 0 0 1 809.2352 411.3345)" class="st3 st4 st5">Black</text>
<rect x="808.2" y="342.4" class="st2" width="82.8" height="8.7"/>
<text transform="matrix(1 0 0 1 808.2357 347.763)" class="st3 st4 st5">Asian-American</text>
<rect x="809.2" y="311.6" class="st2" width="49.8" height="7.5"/>
<text transform="matrix(1 0 0 1 809.2352 316.9225)" class="st4 st5">White</text>
<circle class="st7" cx="636.2" cy="313.6" r="3.2"/>
<circle class="st7" cx="644" cy="313.6" r="3.2"/>
<circle class="st7" cx="620.6" cy="313.6" r="3.2"/>
<circle class="st7" cx="597.2" cy="313.6" r="3.2"/>
<circle class="st7" cx="612.8" cy="313.6" r="3.2"/>
<circle class="st7" cx="605" cy="313.6" r="3.2"/>
<circle class="st7" cx="628.4" cy="313.6" r="3.2"/>
<circle class="st7" cx="598.7" cy="345.5" r="3.2"/>
<circle class="st7" cx="606.4" cy="345.5" r="3.2"/>
<circle class="st7" cx="583.2" cy="345.5" r="3.2"/>
<circle class="st7" cx="560" cy="345.5" r="3.2"/>
<circle class="st7" cx="575.5" cy="345.5" r="3.2"/>
<circle class="st7" cx="567.8" cy="345.5" r="3.2"/>
<circle class="st7" cx="591" cy="345.5" r="3.2"/>
<circle class="st7" cx="552.3" cy="345.5" r="3.2"/>
<g>
	<circle class="st7" cx="533.2" cy="409.6" r="3.2"/>
</g>
<circle class="st7" cx="525.5" cy="409.6" r="3.2"/>
<circle class="st7" cx="502.6" cy="409.6" r="3.2"/>
<circle class="st7" cx="517.9" cy="409.6" r="3.2"/>
<circle class="st7" cx="510.2" cy="409.6" r="3.2"/>
<circle class="st7" cx="487.3" cy="409.6" r="3.2"/>
<circle class="st7" cx="464.4" cy="409.6" r="3.2"/>
<circle class="st7" cx="479.7" cy="409.6" r="3.2"/>
<circle class="st7" cx="472.1" cy="409.6" r="3.2"/>
<circle class="st7" cx="495" cy="409.6" r="3.2"/>
<g>
	<circle class="st7" cx="456.8" cy="409.6" r="3.2"/>
</g>
<circle class="st7" cx="449.1" cy="409.6" r="3.2"/>
<circle class="st7" cx="426.2" cy="409.6" r="3.2"/>
<circle class="st7" cx="441.5" cy="409.6" r="3.2"/>
<circle class="st7" cx="433.9" cy="409.6" r="3.2"/>
<circle class="st7" cx="410.9" cy="409.6" r="3.2"/>
<circle class="st7" cx="388" cy="409.6" r="3.2"/>
<circle class="st7" cx="403.3" cy="409.6" r="3.2"/>
<circle class="st7" cx="395.7" cy="409.6" r="3.2"/>
<circle class="st7" cx="418.6" cy="409.6" r="3.2"/>
<circle class="st7" cx="380.4" cy="409.6" r="3.2"/>
<circle class="st7" cx="365.1" cy="409.6" r="3.2"/>
<circle class="st7" cx="342.2" cy="409.6" r="3.2"/>
<circle class="st7" cx="357.5" cy="409.6" r="3.2"/>
<circle class="st2" cx="349.8" cy="409.6" r="3.2"/>
<circle class="st7" cx="372.8" cy="409.6" r="3.2"/>
<rect x="441" y="84" class="st2" width="176" height="16"/>
<text transform="matrix(1 0 0 1 441 94.0498)" class="st11 st4 st12">Who Feels it More?</text>
<polygon class="st2" points="450,78 493,78 493,78 450,78 "/>
<line class="st13" x1="482" y1="66" x2="552.5" y2="66"/>
<circle class="st7" cx="349.2" cy="409.6" r="3.2"/>
<circle class="st1" cx="753.1" cy="376.7" r="3.2"/>
<circle class="st1" cx="729.6" cy="376.7" r="3.2"/>
<circle class="st1" cx="745.2" cy="376.7" r="3.2"/>
<circle class="st1" cx="737.3" cy="376.7" r="3.2"/>
<circle class="st1" cx="760.8" cy="376.7" r="3.2"/>
<circle class="st1" cx="714.5" cy="376.7" r="3.2"/>
<circle class="st1" cx="690.9" cy="376.7" r="3.2"/>
<circle class="st1" cx="706.5" cy="376.7" r="3.2"/>
<circle class="st1" cx="698.6" cy="376.7" r="3.2"/>
<circle class="st1" cx="722.2" cy="376.7" r="3.2"/>
<circle class="st1" cx="675.6" cy="376.7" r="3.2"/>
<circle class="st1" cx="652" cy="376.7" r="3.2"/>
<circle class="st1" cx="667.6" cy="376.7" r="3.2"/>
<circle class="st1" cx="659.7" cy="376.7" r="3.2"/>
<circle class="st1" cx="683.2" cy="376.7" r="3.2"/>
<circle class="st1" cx="636.9" cy="376.7" r="3.2"/>
<circle class="st1" cx="628.9" cy="376.7" r="3.2"/>
<circle class="st1" cx="621" cy="376.7" r="3.2"/>
<circle class="st1" cx="644.6" cy="376.7" r="3.2"/>
<circle class="st1" cx="784.4" cy="376.7" r="3.2"/>
<circle class="st1" cx="776.5" cy="376.7" r="3.2"/>
<circle class="st1" cx="768.5" cy="376.7" r="3.2"/>
<circle class="st1" cx="792.1" cy="376.7" r="3.2"/>
<circle class="st6" cx="598.1" cy="376.7" r="3.2"/>
<circle class="st6" cx="574.5" cy="376.7" r="3.2"/>
<circle class="st6" cx="590.1" cy="376.7" r="3.2"/>
<circle class="st6" cx="582.2" cy="376.7" r="3.2"/>
<circle class="st6" cx="605.7" cy="376.7" r="3.2"/>
<circle class="st6" cx="559.4" cy="376.7" r="3.2"/>
<circle class="st6" cx="535.8" cy="376.7" r="3.2"/>
<circle class="st6" cx="551.5" cy="376.7" r="3.2"/>
<circle class="st6" cx="543.5" cy="376.7" r="3.2"/>
<circle class="st6" cx="567.1" cy="376.7" r="3.2"/>
<circle class="st6" cx="520.5" cy="376.7" r="3.2"/>
<circle class="st6" cx="496.9" cy="376.7" r="3.2"/>
<circle class="st6" cx="512.5" cy="376.7" r="3.2"/>
<circle class="st6" cx="504.6" cy="376.7" r="3.2"/>
<circle class="st6" cx="528.2" cy="376.7" r="3.2"/>
<circle class="st6" cx="481.8" cy="376.7" r="3.2"/>
<circle class="st6" cx="473.9" cy="376.7" r="3.2"/>
<circle class="st6" cx="465.9" cy="376.7" r="3.2"/>
<circle class="st6" cx="489.5" cy="376.7" r="3.2"/>
<circle class="st6" cx="613.4" cy="376.7" r="3.2"/>
<rect x="810.2" y="373.4" class="st2" width="65.8" height="5.5"/>
<text transform="matrix(1 0 0 1 810.2352 378.7194)" class="st3 st4 st5">Hispanic</text>
<circle class="st7" cx="425.6" cy="376.7" r="3.2"/>
<circle class="st7" cx="433.3" cy="376.7" r="3.2"/>
<circle class="st7" cx="456.9" cy="376.7" r="3.2"/>
<circle class="st7" cx="448.9" cy="376.7" r="3.2"/>
<circle class="st7" cx="441" cy="376.7" r="3.2"/>
<rect x="269.7" y="114.7" class="st2" width="484.3" height="44.3"/>
<text transform="matrix(1 0 0 1 273.2515 121.3662)" class="st4 st14">Comparing racial and ethnic differences within the best and worst states to get an abortion in. </text>
<circle class="st6" cx="512.1" cy="693.9" r="12.1"/>
<g>
	<circle class="st7" cx="351.3" cy="693.7" r="12.3"/>
</g>
<circle class="st1" cx="684.4" cy="694" r="12"/>
<g class="st15">
	<rect x="298" y="724" class="st7" width="101" height="10"/>
</g>
<g class="st15">
	<rect x="298" y="735" class="st7" width="101" height="9"/>
</g>
<rect x="444.1" y="724" class="st16" width="130" height="10"/>
<rect x="471.1" y="735" class="st16" width="76" height="9"/>
<rect x="482.1" y="745" class="st16" width="54" height="9"/>
<rect x="616.1" y="724" class="st17" width="130" height="9"/>
<rect x="652.1" y="735" class="st17" width="57" height="9"/>
<rect x="654.1" y="745" class="st17" width="54" height="9"/>
<rect x="292.2" y="727" class="st2" width="112" height="37"/>
<text transform="matrix(1 0 0 1 301.3793 732.3604)"><tspan x="0" y="0" class="st18 st5">Maternal Mortality Rate </tspan><tspan x="1.5" y="9.6" class="st18 st5">(Deaths of Mothers per </tspan><tspan x="7.5" y="19.2" class="st18 st5">100,000 lives births)</tspan><tspan x="12.8" y="28.8" class="st18 st5">(1 circle = 1 death)</tspan></text>
<rect x="435.6" y="726" class="st2" width="147" height="50"/>
<text transform="matrix(1 0 0 1 446.993 731.3604)"><tspan x="0" y="0" class="st18 st5">Percentage of Females Without </tspan><tspan x="27.8" y="9.6" class="st18 st5">Health Insurance</tspan><tspan x="36.1" y="19.2" class="st18 st5"> (1 circle = 1%)</tspan></text>
<rect x="606.9" y="727" class="st2" width="147" height="50"/>
<text transform="matrix(1 0 0 1 621.8853 732.3604)"><tspan x="0" y="0" class="st18 st5">Percentage of Females Under </tspan><tspan x="33.5" y="9.6" class="st18 st5">Poverty Line</tspan><tspan x="32.6" y="19.2" class="st18 st5"> (1 circle = 1%)</tspan></text>
<rect x="284" y="131" class="st2" width="199" height="111"/>
<text transform="matrix(1 0 0 1 284 148.3604)"><tspan x="0" y="0" class="st11 st4 st14">California</tspan><tspan x="51.9" y="0" class="st4 st5"> - 45% of counties without provider </tspan><tspan x="0" y="14" class="st18 st5">1. Waiting period = NO </tspan><tspan x="0" y="28" class="st18 st5">2. Mandatory ultrasound = NO</tspan><tspan x="0" y="42" class="st18 st5">3. Mandatory counselling = NO</tspan><tspan x="0" y="56" class="st18 st5">4. At least one parent informed = NO</tspan><tspan x="0" y="70" class="st18 st5">5. At least one parent consent = NO</tspan></text>
<rect x="554" y="131" class="st2" width="206" height="111"/>
<text transform="matrix(1 0 0 1 554 148.3604)"><tspan x="0" y="0" class="st11 st4 st14">Mississippi</tspan><tspan x="57.5" y="0" class="st4 st5"> - 89% of counties without provider </tspan><tspan x="0" y="14" class="st18 st5">1. Waiting period = YES </tspan><tspan x="0" y="28" class="st18 st5">2. Mandatory ultrasound = YES</tspan><tspan x="0" y="42" class="st18 st5">3. Mandatory counselling = YES</tspan><tspan x="0" y="56" class="st18 st5">4. At least one parent informed = NO</tspan><tspan x="0" y="70" class="st18 st5">5. At least one parent consent = YES</tspan></text>
<rect x="635" y="593.3" class="st17" width="24" height="9"/>
<rect x="641" y="594.3" class="st2" width="28" height="9.7"/>
<text transform="matrix(1 0 0 1 641 599.0234)" class="st18 st19">36%</text>
<rect x="321" y="593.3" class="st16" width="24" height="9"/>
<rect x="327" y="595.3" class="st2" width="28" height="9.7"/>
<text transform="matrix(1 0 0 1 327 600.0234)" class="st18 st19">50%</text>
<rect x="651" y="629.7" class="st17" width="24" height="9"/>
<rect x="656" y="631" class="st2" width="28" height="9.7"/>
<text transform="matrix(1 0 0 1 656 635.6901)" class="st18 st19">35%</text>
<rect x="399" y="629.7" class="st16" width="24" height="9"/>
<rect x="405" y="631" class="st2" width="28" height="9.7"/>
<text transform="matrix(1 0 0 1 405 635.6901)" class="st18 st19">27%</text>
<g class="st15">
	<rect x="200" y="629.7" class="st7" width="24" height="9"/>
</g>
<rect x="208" y="631" class="st2" width="28" height="9.7"/>
<text transform="matrix(1 0 0 1 208 635.6901)" class="st18 st19">29</text>
<rect x="724" y="560" class="st17" width="24" height="9"/>
<rect x="729" y="561.3" class="st2" width="28" height="9.7"/>
<text transform="matrix(1 0 0 1 729 566.0234)" class="st18 st19">18%</text>
<rect x="732" y="524" class="st17" width="24" height="9"/>
<rect x="738" y="526.3" class="st2" width="28" height="9.7"/>
<text transform="matrix(1 0 0 1 738 531.0234)" class="st18 st19">16%</text>
<rect x="501" y="558" class="st16" width="24" height="9"/>
<rect x="507" y="559.3" class="st2" width="28" height="9.7"/>
<text transform="matrix(1 0 0 1 507 564.0234)" class="st18 st19">38%</text>
<rect x="589" y="523" class="st16" width="24" height="9"/>
<rect x="595" y="524.3" class="st2" width="28" height="9.7"/>
<text transform="matrix(1 0 0 1 595 529.0234)" class="st18 st19">20%</text>
<g class="st15">
	<rect x="448" y="522" class="st7" width="15" height="9"/>
</g>
<rect x="452" y="523.3" class="st2" width="28" height="9.7"/>
<text transform="matrix(1 0 0 1 452 528.0234)" class="st18 st19">18</text>
<rect x="690" y="417" class="st17" width="24" height="9"/>
<rect x="696" y="419.3" class="st2" width="28" height="9.7"/>
<text transform="matrix(1 0 0 1 696 424.0234)" class="st18 st19">24%</text>
<rect x="559" y="417" class="st16" width="17" height="9"/>
<rect x="564" y="418.3" class="st2" width="28" height="9.7"/>
<text transform="matrix(1 0 0 1 564 423.0234)" class="st18 st19">9%</text>
<g class="st15">
	<rect x="433" y="417" class="st7" width="14" height="9"/>
</g>
<rect x="436" y="418.3" class="st2" width="28" height="9.7"/>
<text transform="matrix(1 0 0 1 436 423.0234)" class="st18 st19">26</text>
<rect x="701" y="383" class="st17" width="20" height="9"/>
<rect x="705" y="385.3" class="st2" width="28" height="9.7"/>
<text transform="matrix(1 0 0 1 705 390.0234)" class="st18 st19">23%</text>
<rect x="529" y="383" class="st16" width="20" height="9"/>
<rect x="533" y="384.3" class="st2" width="28" height="9.7"/>
<text transform="matrix(1 0 0 1 533 389.0234)" class="st18 st19">20%</text>
<g class="st15">
	<rect x="435" y="383" class="st7" width="12" height="9"/>
</g>
<rect x="439" y="384.3" class="st2" width="28" height="9.7"/>
<text transform="matrix(1 0 0 1 439 389.0234)" class="st18 st19">5</text>
<rect x="740" y="353" class="st17" width="19" height="9"/>
<rect x="744" y="355.3" class="st2" width="28" height="9.7"/>
<text transform="matrix(1 0 0 1 744 360.0234)" class="st18 st19">12%</text>
<rect x="643" y="353" class="st16" width="20" height="9"/>
<rect x="647" y="354.3" class="st2" width="28" height="9.7"/>
<text transform="matrix(1 0 0 1 647 359.0234)" class="st18 st19">12%</text>
<g class="st15">
	<rect x="574" y="353" class="st7" width="13" height="9"/>
</g>
<rect x="578" y="355.3" class="st2" width="28" height="9.7"/>
<text transform="matrix(1 0 0 1 578 360.0234)" class="st18 st19">8</text>
<rect x="740" y="320" class="st17" width="20" height="9"/>
<rect x="745" y="321.3" class="st2" width="28" height="9.7"/>
<text transform="matrix(1 0 0 1 745 326.0234)" class="st18 st19">11%</text>
<rect x="666" y="320" class="st16" width="15" height="9"/>
<rect x="669" y="321.3" class="st2" width="28" height="9.7"/>
<text transform="matrix(1 0 0 1 669 326.0234)" class="st18 st19">8%</text>
<g class="st15">
	<rect x="610" y="320" class="st7" width="13" height="9"/>
</g>
<rect x="614" y="321.3" class="st2" width="28" height="9.7"/>
<text transform="matrix(1 0 0 1 614 326.0244)" class="st18 st19">7</text>
<g class="st15">
	<rect x="306" y="745" class="st7" width="85" height="9"/>
</g>
<g class="st15">
	<rect x="311" y="755" class="st7" width="73" height="9"/>
</g>
</svg>
