<?xml version="1.0" encoding="utf-8"?>
<!-- Generator: Adobe Illustrator 21.1.0, SVG Export Plug-In . SVG Version: 6.00 Build 0)  -->
<svg version="1.1" id="Layer_1" xmlns="http://www.w3.org/2000/svg" xmlns:xlink="http://www.w3.org/1999/xlink" x="0px" y="0px"
	 viewBox="0 0 1280 1137" style="enable-background:new 0 0 1280 1137;" xml:space="preserve">
<style type="text/css">
	.st0{fill:#FF8745;}
</style>
<g transform="translate(0.000000,1137.000000) scale(0.100000,-0.100000)">
	<path class="st0" d="M6770,11364c-354-31-611-83-925-188c-535-179-1008-468-1417-865c-269-260-464-510-675-859l-20-34l-18,44
		c-23,58-31,208-15,306c54,335,320,746,650,1001l89,68l-72,7c-76,7-290-7-392-24c-452-80-888-320-1245-686
		c-516-530-709-1178-484-1627c198-395,648-621,1348-677c71-5,169-10,217-10c49,0,89-4,89-9c0-20-180-153-265-196
		c-135-67-222-87-385-87c-148-1-294,24-480,81c-55,16-97,24-99,19c-2-6,15-47,38-93c113-229,383-373,806-432c145-20,503-22,675-4
		c440,46,877,153,1289,315c63,25,116,44,118,43c3-3-72-1069-82-1174l-7-63h892h892l-6,58c-3,31-22,282-41,557s-37,529-41,565l-6,64
		l66-62c332-310,772-515,1243-578c169-22,445-22,618,1c505,66,956,297,1192,610c55,72,126,217,149,300c16,62,32,255,20,255
		c-4,0-32-11-64-24c-160-67-335-100-532-99c-165,0-268,18-365,63c-62,29-102,57-94,64c2,2,54,18,114,36c405,116,711,274,923,474
		c146,138,239,283,284,441c32,113,32,287,0,399c-96,336-404,619-823,757c-652,214-1449,55-2176-433c-57-38-103-64-103-60
		c0,5,14,42,30,83c151,366,403,574,908,749c139,49,131,34,83,151c-33,78-82,154-152,235c-237,271-623,448-1138,520
		C7280,11360,6865,11372,6770,11364z"/>
	<path class="st0" d="M6085,5684c-2235-44-4002-462-4271-1010c-25-51-29-70-29-144s4-93,30-145c176-354,1039-677,2280-854
		c207-30,639-81,683-81h22v195c0,107-3,195-7,195c-38,0-405,60-578,95c-651,131-1016,313-1015,506c2,278,743,532,1885,648
		c441,45,796,61,1315,61c941,0,1764-81,2385-236c270-67,539-170,657-252c384-266,56-544-857-727c-173-35-540-95-578-95
		c-4,0-7-88-7-195v-195h23c43,0,475,51,682,81c712,101,1315,254,1736,440c269,118,474,274,544,414c26,52,30,71,30,145s-4,93-29,144
		c-225,458-1525,839-3296,965C7222,5673,6520,5692,6085,5684z"/>
	<path class="st0" d="M5420,4595c0-43-79-1787-84-1858l-5-68l82-37c667-295,1175-810,1308-1325c22-82,40-227,29-227
		c-4,0-22,21-41,48c-176,246-489,556-765,758c-788,575-1792,736-2616,419c-350-135-662-387-813-657l-25-46l132-64
		c217-106,361-207,491-348c154-167,240-358,262-585l7-70l-144,141c-78,77-179,169-223,204c-267,211-592,370-881,429
		c-405,84-821,28-1196-159C455,908,103,487,5,32L-2,0h6402h6401l-6,37c-77,461-363,822-843,1062c-432,216-995,285-1502,184
		c-381-76-719-249-949-487c-40-42-75-76-78-76c-7,0,6,106,23,183c77,359,398,736,721,848c31,10,68,19,82,19c60,1,59,16-4,81
		c-224,228-594,358-1075,376c-680,25-1345-212-1578-564l-37-57l-3,45c-11,165-172,2930-172,2948v21h-980h-980V4595z"/>
</g>
</svg>
