<?xml version="1.0" encoding="utf-8"?>
<!-- Generator: Adobe Illustrator 22.1.0, SVG Export Plug-In . SVG Version: 6.00 Build 0)  -->
<svg version="1.1" xmlns="http://www.w3.org/2000/svg" xmlns:xlink="http://www.w3.org/1999/xlink" x="0px" y="0px"
	 viewBox="0 0 800 600" style="enable-background:new 0 0 800 600;" xml:space="preserve">
<style type="text/css">
	.st0{fill:#D9D9D9;}
	.st1{display:none;}
	.st2{display:inline;}
	.st3{display:inline;opacity:0;clip-path:url(#SVGID_2_);fill:#FFFFFF;}
	.st4{display:inline;clip-path:url(#SVGID_2_);fill:#FFFFFF;}
	.st5{display:inline;clip-path:url(#SVGID_4_);fill:none;stroke:#D9D9D9;stroke-linejoin:round;stroke-miterlimit:10;}
	.st6{display:inline;clip-path:url(#SVGID_6_);fill:none;stroke:#D9D9D9;stroke-linejoin:round;stroke-miterlimit:10;}
	.st7{display:inline;clip-path:url(#SVGID_8_);fill:none;stroke:#BFBFBF;stroke-linejoin:round;stroke-miterlimit:10;}
	.st8{display:inline;clip-path:url(#SVGID_10_);fill:none;stroke:#BFBFBF;stroke-linejoin:round;stroke-miterlimit:10;}
	.st9{opacity:0.5;clip-path:url(#SVGID_12_);fill:#0000FF;}
	.st10{opacity:0.5;clip-path:url(#SVGID_12_);fill:#0000FF;stroke:#0000FF;stroke-miterlimit:10;}
	.st11{display:none;clip-path:url(#SVGID_12_);}
	.st12{display:inline;fill:none;}
	.st13{display:inline;fill:#0000FF;}
	.st14{font-family:'MyriadPro-Regular';}
	.st15{font-size:10.209px;}
	.st16{fill:none;stroke:#808080;stroke-width:0.25;stroke-miterlimit:10;}
	.st17{fill:none;stroke:#808080;stroke-width:0.25;stroke-miterlimit:10;stroke-dasharray:3.0165,3.0165;}
	.st18{fill:none;stroke:#808080;stroke-width:0.25;stroke-miterlimit:10;stroke-dasharray:3.0262,3.0262;}
	.st19{fill:none;stroke:#808080;stroke-width:0.25;stroke-miterlimit:10;stroke-dasharray:3.0067,3.0067;}
	.st20{fill:none;}
	.st21{fill:#4D4D4D;}
	.st22{font-family:'Avenir-Black';}
	.st23{font-size:8.5075px;}
	.st24{fill:#0000FF;}
	.st25{font-size:7.6567px;}
	.st26{font-size:10px;}
	.st27{fill:#F73128;}
	.st28{fill:none;stroke:#808080;stroke-width:0.25;stroke-miterlimit:10;stroke-dasharray:3.0214,3.0214;}
	.st29{fill:none;stroke:#808080;stroke-width:0.25;stroke-miterlimit:10;stroke-dasharray:2.9869,2.9869;}
	.st30{fill:#FC4631;}
	.st31{opacity:0.7;fill:#FC4631;}
</style>
<g id="_x32_017">
	<rect x="-2" y="1.7" class="st0" width="802.7" height="598.3"/>
	<g class="st1">
		<defs>
			<rect id="SVGID_1_" x="4" y="37" width="794" height="525"/>
		</defs>
		<clipPath id="SVGID_2_" class="st2">
			<use xlink:href="#SVGID_1_"  style="overflow:visible;"/>
		</clipPath>
		<rect x="4" y="37" class="st3" width="794" height="525"/>
		<rect x="4" y="37" class="st4" width="794" height="525"/>
	</g>
	<g class="st1">
		<defs>
			<rect id="SVGID_3_" x="4" y="37" width="794" height="525"/>
		</defs>
		<clipPath id="SVGID_4_" class="st2">
			<use xlink:href="#SVGID_3_"  style="overflow:visible;"/>
		</clipPath>
		<path class="st5" d="M23.5,78.5h757 M23.5,129.5h757 M23.5,180.5h757 M23.5,231.5h757 M23.5,282.5h757 M23.5,333.5h757
			 M23.5,384.5h757 M23.5,436.5h757 M23.5,487.5h757"/>
	</g>
	<g class="st1">
		<defs>
			<rect id="SVGID_5_" x="4" y="37" width="794" height="525"/>
		</defs>
		<clipPath id="SVGID_6_" class="st2">
			<use xlink:href="#SVGID_5_"  style="overflow:visible;"/>
		</clipPath>
		<path class="st6" d="M780.5,78.5v460 M672.5,78.5v460 M564.5,78.5v460 M456.5,78.5v460 M348.5,78.5v460 M240.5,78.5v460
			 M131.5,78.5v460"/>
	</g>
	<g class="st1">
		<defs>
			<rect id="SVGID_7_" x="4" y="37" width="794" height="525"/>
		</defs>
		<clipPath id="SVGID_8_" class="st2">
			<use xlink:href="#SVGID_7_"  style="overflow:visible;"/>
		</clipPath>
		<line class="st7" x1="23.5" y1="538.5" x2="23.5" y2="78.5"/>
	</g>
	<g class="st1">
		<defs>
			<rect id="SVGID_9_" x="4" y="37" width="794" height="525"/>
		</defs>
		<clipPath id="SVGID_10_" class="st2">
			<use xlink:href="#SVGID_9_"  style="overflow:visible;"/>
		</clipPath>
		<line class="st8" x1="23.5" y1="538.5" x2="780.5" y2="538.5"/>
	</g>
	<g>
		<defs>
			<rect id="SVGID_11_" x="81.7" y="99.3" width="675.5" height="446.6"/>
		</defs>
		<clipPath id="SVGID_12_">
			<use xlink:href="#SVGID_11_"  style="overflow:visible;"/>
		</clipPath>
		<circle class="st9" cx="143.4" cy="276.7" r="14.9"/>
		<circle class="st9" cx="143.4" cy="224.8" r="19.1"/>
		<circle class="st9" cx="143.4" cy="307.4" r="12.8"/>
		<circle class="st9" cx="143.4" cy="286.1" r="14.9"/>
		<circle class="st9" cx="143.4" cy="181.4" r="25.5"/>
		<circle class="st9" cx="189.3" cy="251.2" r="19.1"/>
		<circle class="st9" cx="189.3" cy="241.8" r="19.1"/>
		<circle class="st9" cx="236.1" cy="276.7" r="14.9"/>
		<circle class="st9" cx="236.1" cy="303.1" r="12.8"/>
		<circle class="st9" cx="282" cy="259.7" r="17"/>
		<circle class="st9" cx="282" cy="268.2" r="14.9"/>
		<circle class="st9" cx="282" cy="315.9" r="8.5"/>
		<circle class="st9" cx="282" cy="224.8" r="19.1"/>
		<circle class="st9" cx="328" cy="255.5" r="17"/>
		<circle class="st9" cx="328" cy="290.3" r="14.9"/>
		<circle class="st9" cx="328" cy="272.5" r="14.9"/>
		<circle class="st9" cx="328" cy="333.7" r="8.5"/>
		<circle class="st9" cx="328" cy="307.4" r="12.8"/>
		<circle class="st9" cx="328" cy="229.1" r="19.1"/>
		<circle class="st9" cx="373.9" cy="251.2" r="17"/>
		<circle class="st9" cx="373.9" cy="224.8" r="19.1"/>
		<circle class="st9" cx="373.9" cy="385.6" r="4.3"/>
		<circle class="st9" cx="373.9" cy="229.1" r="19.1"/>
		<circle class="st9" cx="373.9" cy="281" r="14.9"/>
		<circle class="st9" cx="419.8" cy="241.8" r="19.1"/>
		<circle class="st9" cx="419.8" cy="189.9" r="23.4"/>
		<circle class="st9" cx="419.8" cy="233.3" r="19.1"/>
		<circle class="st9" cx="465.8" cy="290.3" r="14.9"/>
		<circle class="st9" cx="465.8" cy="241.8" r="19.1"/>
		<circle class="st9" cx="465.8" cy="251.2" r="17"/>
		<circle class="st9" cx="465.8" cy="281" r="14.9"/>
		<circle class="st9" cx="465.8" cy="342.2" r="8.5"/>
		<circle class="st9" cx="465.8" cy="307.4" r="12.8"/>
		<circle class="st9" cx="511.7" cy="216.3" r="21.3"/>
		<circle class="st9" cx="511.7" cy="259.7" r="17"/>
		<circle class="st9" cx="511.7" cy="276.7" r="14.9"/>
		<circle class="st9" cx="557.7" cy="229.1" r="19.1"/>
		<circle class="st9" cx="557.7" cy="259.7" r="17"/>
		<circle class="st9" cx="603.6" cy="237.6" r="19.1"/>
		<circle class="st9" cx="603.6" cy="207.8" r="23.4"/>
		<circle class="st9" cx="603.6" cy="241.8" r="19.1"/>
		<circle class="st9" cx="603.6" cy="290.3" r="14.9"/>
		<circle class="st9" cx="603.6" cy="268.2" r="14.9"/>
		<circle class="st9" cx="603.6" cy="220.6" r="25.5"/>
		<circle class="st9" cx="603.6" cy="303.1" r="12.8"/>
		<circle class="st9" cx="649.5" cy="264" r="17"/>
		<circle class="st9" cx="649.5" cy="241.8" r="19.1"/>
		<circle class="st10" cx="649.5" cy="311.6" r="12.8"/>
		<circle class="st9" cx="649.5" cy="350.7" r="8.5"/>
		<g class="st11">
			<rect x="91" y="392" class="st12" width="17.9" height="17.4"/>
			<text transform="matrix(1 0 0 1 91.0303 399.248)" class="st13 st14 st15">3</text>
		</g>
		<g class="st11">
			<rect x="91" y="347.8" class="st12" width="10.6" height="10.2"/>
			<text transform="matrix(1 0 0 1 91.0303 355.0088)" class="st13 st14 st15">4</text>
		</g>
		<g class="st11">
			<rect x="91" y="304.4" class="st12" width="15.3" height="17.4"/>
			<text transform="matrix(1 0 0 1 91.0303 311.6211)" class="st13 st14 st15">5</text>
		</g>
		<g class="st11">
			<rect x="91" y="260.6" class="st12" width="13.6" height="17.4"/>
			<text transform="matrix(1 0 0 1 91.0303 267.8076)" class="st13 st14 st15">6</text>
		</g>
		<g class="st11">
			<rect x="91" y="216.3" class="st12" width="16.6" height="16.2"/>
			<text transform="matrix(1 0 0 1 91.0303 223.5688)" class="st13 st14 st15">7</text>
		</g>
		<g class="st11">
			<rect x="91" y="172.9" class="st12" width="16.6" height="13.2"/>
			<text transform="matrix(1 0 0 1 91.0303 180.1807)" class="st13 st14 st15">8</text>
		</g>
		<g class="st11">
			<rect x="91" y="130.8" class="st12" width="17" height="17.4"/>
			<text transform="matrix(1 0 0 1 91.0303 138.0688)" class="st13 st14 st15">9</text>
		</g>
	</g>
	<g>
		<g>
			<line class="st16" x1="189.7" y1="129.1" x2="189.7" y2="130.6"/>
			<line class="st17" x1="189.7" y1="133.6" x2="189.7" y2="391.5"/>
			<line class="st16" x1="189.7" y1="393.1" x2="189.7" y2="394.6"/>
		</g>
	</g>
	<g>
		<g>
			<line class="st16" x1="236.5" y1="129.1" x2="236.5" y2="130.6"/>
			<line class="st17" x1="236.5" y1="133.6" x2="236.5" y2="391.5"/>
			<line class="st16" x1="236.5" y1="393.1" x2="236.5" y2="394.6"/>
		</g>
	</g>
	<g>
		<g>
			<line class="st16" x1="282.4" y1="128.3" x2="282.4" y2="129.8"/>
			<line class="st18" x1="282.4" y1="132.8" x2="282.4" y2="391.5"/>
			<line class="st16" x1="282.4" y1="393.1" x2="282.4" y2="394.6"/>
		</g>
	</g>
	<g>
		<g>
			<line class="st16" x1="328.4" y1="128.3" x2="328.4" y2="129.8"/>
			<line class="st18" x1="328.4" y1="132.8" x2="328.4" y2="391.5"/>
			<line class="st16" x1="328.4" y1="393.1" x2="328.4" y2="394.6"/>
		</g>
	</g>
	<g>
		<g>
			<line class="st16" x1="375.2" y1="128.3" x2="375.2" y2="129.8"/>
			<line class="st18" x1="375.2" y1="132.8" x2="375.2" y2="391.5"/>
			<line class="st16" x1="375.2" y1="393.1" x2="375.2" y2="394.6"/>
		</g>
	</g>
	<g>
		<g>
			<line class="st16" x1="420.3" y1="129.1" x2="420.3" y2="130.6"/>
			<line class="st17" x1="420.3" y1="133.6" x2="420.3" y2="391.5"/>
			<line class="st16" x1="420.3" y1="393.1" x2="420.3" y2="394.6"/>
		</g>
	</g>
	<g>
		<g>
			<line class="st16" x1="467.1" y1="129.1" x2="467.1" y2="130.6"/>
			<line class="st17" x1="467.1" y1="133.6" x2="467.1" y2="391.5"/>
			<line class="st16" x1="467.1" y1="393.1" x2="467.1" y2="394.6"/>
		</g>
	</g>
	<g>
		<g>
			<line class="st16" x1="512.1" y1="129.1" x2="512.1" y2="130.6"/>
			<line class="st17" x1="512.1" y1="133.6" x2="512.1" y2="391.5"/>
			<line class="st16" x1="512.1" y1="393.1" x2="512.1" y2="394.6"/>
		</g>
	</g>
	<g>
		<g>
			<line class="st16" x1="558.9" y1="129.1" x2="558.9" y2="130.6"/>
			<line class="st17" x1="558.9" y1="133.6" x2="558.9" y2="391.5"/>
			<line class="st16" x1="558.9" y1="393.1" x2="558.9" y2="394.6"/>
		</g>
	</g>
	<g>
		<g>
			<line class="st16" x1="604" y1="129.1" x2="604" y2="130.6"/>
			<line class="st19" x1="604" y1="133.6" x2="604" y2="390.7"/>
			<line class="st16" x1="604" y1="392.2" x2="604" y2="393.7"/>
		</g>
	</g>
	<g>
		<g>
			<line class="st16" x1="650" y1="129.1" x2="650" y2="130.6"/>
			<line class="st17" x1="650" y1="133.6" x2="650" y2="391.5"/>
			<line class="st16" x1="650" y1="393.1" x2="650" y2="394.6"/>
		</g>
	</g>
	<rect x="124.2" y="403.5" class="st20" width="37.4" height="23"/>
	<text transform="matrix(1 0 0 1 136.0728 409.917)" class="st21 st22 st23">Jan</text>
	<rect x="180.4" y="403.5" class="st20" width="18.3" height="14.9"/>
	<text transform="matrix(1 0 0 1 181.8594 409.917)" class="st21 st22 st23">Feb</text>
	<rect x="227.1" y="403.5" class="st20" width="18.7" height="15.3"/>
	<text transform="matrix(1 0 0 1 228.4766 409.917)" class="st21 st22 st23">Mar</text>
	<rect x="273.9" y="403.5" class="st20" width="17" height="14.5"/>
	<text transform="matrix(1 0 0 1 274.8848 409.917)" class="st21 st22 st23">Apr</text>
	<rect x="315.6" y="403.5" class="st20" width="23.8" height="17"/>
	<text transform="matrix(1 0 0 1 318.8726 409.917)" class="st21 st22 st23">May</text>
	<rect x="365.4" y="403.5" class="st20" width="18.3" height="17.4"/>
	<text transform="matrix(1 0 0 1 367.5308 409.917)" class="st21 st22 st23">Jun</text>
	<rect x="410.5" y="403.5" class="st20" width="19.1" height="13.6"/>
	<text transform="matrix(1 0 0 1 414.3818 409.917)" class="st21 st22 st23">Jul</text>
	<rect x="456.9" y="403.5" class="st20" width="19.1" height="16.6"/>
	<text transform="matrix(1 0 0 1 458.1484 409.917)" class="st21 st22 st23">Aug</text>
	<rect x="499" y="403.5" class="st20" width="25.5" height="17.4"/>
	<text transform="matrix(1 0 0 1 504.1611 409.917)" class="st21 st22 st23">Sep</text>
	<rect x="544.9" y="403.5" class="st20" width="25.5" height="18.7"/>
	<text transform="matrix(1 0 0 1 550.3428 409.917)" class="st21 st22 st23">Oct</text>
	<rect x="590.4" y="403.5" class="st20" width="25.5" height="21.3"/>
	<text transform="matrix(1 0 0 1 594.7529 409.917)" class="st21 st22 st23">Nov</text>
	<rect x="635.5" y="403.5" class="st20" width="25.5" height="16.6"/>
	<text transform="matrix(1 0 0 1 640.5479 409.917)" class="st21 st22 st23">Dec</text>
	<rect x="88.9" y="126.1" class="st20" width="9.6" height="9.4"/>
	<text transform="matrix(1 0 0 1 91.4219 131.9302)" class="st24 st22 st25">9</text>
	<rect x="89.8" y="172.5" class="st20" width="8.3" height="9.4"/>
	<text transform="matrix(1 0 0 1 91.6348 178.2959)" class="st24 st22 st25">8</text>
	<rect x="91.5" y="217.2" class="st20" width="6.2" height="8.5"/>
	<text transform="matrix(1 0 0 1 92.2725 222.96)" class="st24 st22 st25">7</text>
	<rect x="88.9" y="262.7" class="st20" width="9.4" height="11.1"/>
	<text transform="matrix(1 0 0 1 91.3154 268.4751)" class="st24 st22 st25">6</text>
	<rect x="88.9" y="305.9" class="st20" width="10.4" height="11.1"/>
	<text transform="matrix(1 0 0 1 91.8472 311.6499)" class="st24 st22 st25">5</text>
	<rect x="88.9" y="348.6" class="st20" width="10" height="9.6"/>
	<text transform="matrix(1 0 0 1 91.6348 354.3994)" class="st24 st22 st25">4</text>
	<rect x="89.8" y="391.4" class="st20" width="10.2" height="10.8"/>
	<text transform="matrix(1 0 0 1 92.5918 397.1494)" class="st24 st22 st25">3</text>
	<g>
		<rect x="6" y="277.5" class="st20" width="70" height="26"/>
		<text transform="matrix(1 0 0 1 15.3506 285.0601)" class="st24 st22 st26">Magnitude</text>
	</g>
	<g>
		<rect x="728" y="273.5" class="st20" width="70" height="26"/>
		<text transform="matrix(1 0 0 1 737.2705 281.0601)"><tspan x="0" y="0" class="st27 st22 st26">Number of </tspan><tspan x="9.2" y="12" class="st27 st22 st26">Deaths</tspan></text>
	</g>
</g>
<g id="Chart">
	<g>
		<g>
			<line class="st16" x1="98.3" y1="128.7" x2="98.3" y2="130.2"/>
			<line class="st28" x1="98.3" y1="133.2" x2="98.3" y2="391.5"/>
			<line class="st16" x1="98.3" y1="393.1" x2="98.3" y2="394.6"/>
		</g>
	</g>
	<g>
		<g>
			<line class="st16" x1="143.8" y1="129.1" x2="143.8" y2="130.6"/>
			<line class="st17" x1="143.8" y1="133.6" x2="143.8" y2="391.5"/>
			<line class="st16" x1="143.8" y1="393.1" x2="143.8" y2="394.6"/>
		</g>
	</g>
	<g>
		<g>
			<line class="st16" x1="696.8" y1="127.4" x2="696.8" y2="128.9"/>
			<line class="st29" x1="696.8" y1="131.9" x2="696.8" y2="393.3"/>
			<line class="st16" x1="696.8" y1="394.8" x2="696.8" y2="396.3"/>
		</g>
	</g>
	<rect x="694.6" y="124.4" class="st20" width="19.1" height="15.3"/>
	<text transform="matrix(1 0 0 1 697.4062 130.229)" class="st30 st22 st25">650</text>
	<rect x="694.2" y="161.4" class="st20" width="19.6" height="13.2"/>
	<text transform="matrix(1 0 0 1 697.1934 167.2363)" class="st30 st22 st25">550</text>
	<rect x="694.6" y="200.2" class="st20" width="19.6" height="16.6"/>
	<text transform="matrix(1 0 0 1 697.6191 205.9453)" class="st30 st22 st25">450</text>
	<rect x="693.4" y="238" class="st20" width="21.7" height="16.2"/>
	<text transform="matrix(1 0 0 1 697.4053 243.8037)" class="st30 st22 st25">350</text>
	<rect x="692.5" y="275.4" class="st20" width="23.8" height="18.3"/>
	<text transform="matrix(1 0 0 1 697.6182 281.2363)" class="st30 st22 st25">250</text>
	<rect x="692.5" y="314.2" class="st20" width="23" height="17.9"/>
	<text transform="matrix(1 0 0 1 697.1924 319.9443)" class="st30 st22 st25">150</text>
	<rect x="692.9" y="352.9" class="st20" width="19.6" height="19.6"/>
	<text transform="matrix(1 0 0 1 698.1836 358.6533)" class="st30 st22 st25">50</text>
	<rect x="691.2" y="392" class="st20" width="19.6" height="19.6"/>
	<text transform="matrix(1 0 0 1 698.748 397.7881)" class="st30 st22 st25">0</text>
	<rect x="140.4" y="363.1" class="st31" width="6" height="31.5"/>
	<rect x="186.3" y="387.7" class="st31" width="6" height="6.8"/>
	<rect x="233.1" y="392" class="st31" width="6" height="2.6"/>
	<rect x="279" y="392" class="st31" width="6" height="2.6"/>
	<rect x="325" y="386" class="st31" width="6" height="8.5"/>
	<rect x="371.8" y="388.6" class="st31" width="6" height="6"/>
	<rect x="416.9" y="390.3" class="st31" width="6" height="4.3"/>
	<rect x="463.7" y="370.7" class="st31" width="6" height="23.8"/>
	<rect x="509.6" y="188.7" class="st31" width="6.8" height="205.9"/>
	<rect x="555.5" y="393.7" class="st31" width="6" height="0.9"/>
	<rect x="600.6" y="141.9" class="st31" width="6.8" height="251.8"/>
	<rect x="646.6" y="388.6" class="st31" width="6" height="6"/>
</g>
</svg>
