<?xml version="1.0" encoding="utf-8"?>
<!-- Generator: Adobe Illustrator 22.1.0, SVG Export Plug-In . SVG Version: 6.00 Build 0)  -->
<svg version="1.1" id="Layer_1" xmlns="http://www.w3.org/2000/svg" xmlns:xlink="http://www.w3.org/1999/xlink" x="0px" y="0px"
	 viewBox="0 0 1000 200" style="enable-background:new 0 0 1000 200;" xml:space="preserve">
<style type="text/css">
	.st0{fill:none;}
	.st1{fill:#020000;}
	.st2{font-family:'Mirador-BoldDEMO';}
	.st3{font-size:15px;}
	.st4{opacity:0.5;fill:#020000;stroke:#020000;stroke-miterlimit:10;}
	.st5{font-family:'Mirador-BookDEMO';}
	.st6{font-size:8px;}
</style>
<rect x="398" y="34" class="st0" width="176" height="16"/>
<text transform="matrix(1 0 0 1 455.3252 44.0498)" class="st1 st2 st3">Sources</text>
<polygon class="st0" points="417,30 460,30 460,30 417,30 "/>
<line class="st4" x1="449" y1="18" x2="519.5" y2="18"/>
<rect x="91.4" y="75.2" class="st0" width="393.6" height="123"/>
<text transform="matrix(1 0 0 1 91.3516 80.603)"><tspan x="0" y="0" class="st5 st6">https://www.msmu.edu/media/website/content-assets/msmue</tspan><tspan x="243.8" y="0" class="st5 st6">-</tspan><tspan x="0" y="9.6" class="st5 st6">du/home/status-of-women-and-girls-in-california/documents/rswg-2017.pdf </tspan><tspan x="0" y="28.8" class="st5 st6">https://statusofwomendata.org/wp-content/themes/witsfull/factsheets/factsheet-mississippi.pdf</tspan><tspan x="0" y="48" class="st5 st6">http://healthpolicy.ucla.edu/publications/Documents/PDF/2017/shicreport-jan2017.pdf</tspan><tspan x="0" y="67.2" class="st5 st6"> https://www.americashealthrankings.org/explore/health-of-wom</tspan><tspan x="257.4" y="67.2" class="st5 st6">-</tspan><tspan x="0" y="76.8" class="st5 st6">en-and-children/measure/maternal_mortality/state/MS </tspan></text>
<rect x="543.4" y="75.2" class="st0" width="393.6" height="123"/>
<text transform="matrix(1 0 0 1 543.3516 80.603)"><tspan x="0" y="0" class="st5 st6">https://www.theatlantic.com/health/archive/2014/09/abortions-racial-gap/380251/</tspan><tspan x="0" y="19.2" class="st5 st6">https://en.wikipedia.org/wiki/Abortion_in_the_United_States_by_state</tspan><tspan x="0" y="38.4" class="st5 st6">https://www.nytimes.com/interactive/2018/07/20/us/mississippi-abortion-restrictions.html</tspan></text>
</svg>
