<svg xmlns="http://www.w3.org/2000/svg" xmlns:xlink="http://www.w3.org/1999/xlink" version="1.1" x="0px" y="0px" viewBox="0 0 100 125" enable-background="new 0 0 100 100" xml:space="preserve"><g><path d="M95,68c0.1-4.4-1.2-7.6-3.6-9.6c-2-1.6-4.5-2.1-6.4-2l0-0.4c0-0.2,0-0.4,0-0.5c0,0,0,0,0,0l0-0.2c0-0.1,0-0.1,0-0.2   c0-0.4-0.1-0.7-0.1-0.9c-0.5-2.5-2.5-4.4-5.4-5.3c-0.7-0.2-1.6-0.3-2.6-0.3c-3.2,0-7.6,1.2-11.1,2.3l0-12.1c0-1.1-0.1-3.6-0.5-4.8   L65,32.9c1.3-2.4,1.1-4.9-0.4-7.2c-0.2-0.3-0.4-0.5-0.6-0.8c-0.3-0.4-0.7-0.8-1.1-1.1c-0.1-0.1-0.3-0.2-0.4-0.3   c-0.1-0.1-0.1-0.2-0.2-0.2C44.5,9.5,21.8,11.9,17.6,13.8c-0.6,0.3-1.2,0.5-1.8,0.7c-2.5,1-5.1,2.1-7,4.3c-6.2,7.4-3,15.5-2.1,17.3   C6.1,38,3.4,46.6,6.3,57.8c0.6,2.2,1.8,3.9,3.6,4.6l25,11c0.4,0.2,0.9,0.3,1.3,0.2l1.7,3c0.6,1,1.8,1.4,2.9,0.9   c0.8-0.4,2.1-0.9,3.7-1.6c-0.1,0.2-0.1,0.5,0,0.8l0.1,3.4c0,1.3,1,2.4,2.2,2.5l24.6,2.9c0.8,0.4,4.5,2.2,8.8,2.2   c1.3,0,2.6-0.2,3.9-0.5C91.2,84.9,95.4,78,95,69C95,68.7,95,68.3,95,68z M65.4,52.7c3.5-1.2,8.3-2.6,11.6-2.6   c0.8,0,1.5,0.1,2.1,0.3c2.3,0.7,3.9,2.2,4.3,4.1c0,0.2,0.1,0.5,0.1,0.8c0,0,0,0,0,0.1C82.2,60,73.1,62.8,65,62.8   c-6.2,0-13.5,1.6-22.7,5L65.4,52.7z M62.7,25.8C62.7,25.8,62.7,25.8,62.7,25.8c0.2,0.3,0.4,0.5,0.5,0.7c1.2,1.9,1.3,3.9,0.2,5.8   c-0.1,0.2-0.1,0.4-0.1,0.6l0.4,1.4c0.3,1,0.4,3.3,0.4,4.4l0,12.8L37.5,69.1V45.4c0-0.1,0-0.3-0.1-0.4c0-0.1-1.9-7.8,1.9-14.1   c2-3.3,6.7-6.2,11.7-7c1.4-0.2,2.9-0.4,4.4-0.4c2.6,0,5,0.4,6.4,1.4C62.1,25.2,62.4,25.5,62.7,25.8z M10.5,60.9   c-1.6-0.7-2.3-2.3-2.7-3.5c-2.5-9.9-0.4-17.9,0.3-20.2l25.3,8.1c0.4,0.1,0.9-0.1,1-0.5c0.1-0.4-0.1-0.9-0.5-1L8.2,35.4   c-0.7-1.5-3.8-8.7,1.9-15.5c1.6-2,3.9-2.9,6.3-3.9c0.6-0.2,1.2-0.5,1.8-0.8c4.4-2,23.7-3.2,39.6,6.7c-2.2-0.3-4.7-0.1-7.1,0.3   c-5.5,0.9-10.6,4.1-12.9,7.8c-4.1,6.9-2.1,15.2-2.1,15.3v25c-0.3,0.5-0.4,1-0.3,1.5c0,0,0,0-0.1,0L10.5,60.9z M40,76.1   c-0.3,0.1-0.6,0-0.7-0.3l-2.1-3.7c0,0,0,0-0.1-0.1c0-0.1,0-0.3,0-0.5c0.1,0,0.2,0,0.3-0.1c11.7-4.8,20.5-7,27.6-7   c7.1,0,14.8-1.9,18.2-5.7l-0.1,2.6c0,0.3-0.1,0.6-0.2,0.8c-3.2,5.7-13.5,6.5-20.4,7c-1.1,0.1-2.1,0.2-3,0.2c-1,0.1-5,1.3-10.7,3.2   l-1,0.3c0,0,0,0,0,0c0,0,0,0,0,0c0,0,0,0,0,0C44.5,74.1,41.4,75.4,40,76.1z M83.5,85.6C77.9,87.2,72,84,72,83.9   c-0.1-0.1-0.2-0.1-0.3-0.1l-24.8-2.9c-0.5,0-0.8-0.4-0.8-0.9L46,76.6c0,0,0-0.1,0-0.1l26.7,2.7c0,0,4.1,1.9,7.3,1.9   c3.9,0,9.6-1.2,12.7-5.2C91.4,80.7,88.2,84.2,83.5,85.6z M93.3,69C93.3,69,93.3,69,93.3,69C93.3,69,93.3,69,93.3,69L93.3,69   C93.3,69,93.3,69,93.3,69c-0.1,8.3-8.5,10.5-13.4,10.5c-2.8,0-6.6-1.7-6.7-1.7c-0.2-0.1-0.3-0.1-0.5-0.1L47.6,75l0.8-0.6l0.8-0.3   c2.6-0.8,9.4-3,10.4-3.1c0.9-0.1,1.9-0.2,2.9-0.2c6.7-0.5,16.6-1.3,20.8-6.5c0.1-0.1,0.2-0.2,0.3-0.3l0.1-0.2   c0-0.1,0.1-0.1,0.1-0.2c0.1-0.2,0.3-0.4,0.4-0.7c0.3-0.5,0.4-1,0.4-1.6l0.2-3.3c1.6,0,3.7,0.3,5.4,1.7c2.1,1.6,3.1,4.4,3,8.3   C93.4,68.3,93.4,68.6,93.3,69z"/><circle cx="50.2" cy="36.2" r="1.3"/><circle cx="45.2" cy="42" r="0.9"/><circle cx="56.4" cy="40" r="1.1"/><circle cx="55.6" cy="30.5" r="0.9"/><circle cx="75" cy="71.5" r="1.3"/><circle cx="67.6" cy="58.8" r="1.3"/><circle cx="81.2" cy="75.4" r="1.1"/><circle cx="82.9" cy="68.2" r="0.9"/><circle cx="73.8" cy="55.2" r="0.9"/></g><text x="0" y="115" fill="#000000" font-size="5px" font-weight="bold" font-family="'Helvetica Neue', Helvetica, Arial-Unicode, Arial, Sans-serif">Created by parkjisun</text><text x="0" y="120" fill="#000000" font-size="5px" font-weight="bold" font-family="'Helvetica Neue', Helvetica, Arial-Unicode, Arial, Sans-serif">from the Noun Project</text></svg>