<svg xmlns:dc="http://purl.org/dc/elements/1.1/" xmlns:cc="http://creativecommons.org/ns#" xmlns:rdf="http://www.w3.org/1999/02/22-rdf-syntax-ns#" xmlns:svg="http://www.w3.org/2000/svg" xmlns="http://www.w3.org/2000/svg" xmlns:sodipodi="http://sodipodi.sourceforge.net/DTD/sodipodi-0.dtd" xmlns:inkscape="http://www.inkscape.org/namespaces/inkscape" version="1.1" x="0px" y="0px" viewBox="0 0 100 125"><g transform="translate(0,-952.36218)"><path style="text-indent:0;text-transform:none;direction:ltr;block-progression:tb;baseline-shift:baseline;color:#000000;enable-background:accumulate;" d="m 55.789313,995.22246 a 1.1346019,1.1401305 0 0 0 -1.118055,1.15629 l 0,32.47705 a 1.1349921,1.1405226 0 0 0 2.269984,0 l 0,-32.47705 a 1.1346019,1.1401305 0 0 0 -1.151929,-1.15629 z" fill="#000000" fill-opacity="1" fill-rule="evenodd" stroke="none" marker="none" visibility="visible" display="inline" overflow="visible"/><path style="text-indent:0;text-transform:none;direction:ltr;block-progression:tb;baseline-shift:baseline;color:#000000;enable-background:accumulate;" d="m 55.350262,959.36216 c -8.401925,0 -16.96539,1.79746 -24.178677,4.95195 -7.183134,3.14119 -13.038023,7.62435 -15.882838,13.21707 -5.6144771,3.27178 -9.2887441,7.74616 -9.2887441,12.89643 0,2.40877 0.817724,4.68778 2.233559,6.76885 l 0,47.02574 c 0,0.5969 0.540496,1.1399 1.134496,1.14 l 61.1205581,0 c 0.431007,0 0.663236,-0.1161 0.921791,-0.285 l 20.527086,-14.5709 c 0.299976,-0.2049 0.491244,-0.5618 0.496453,-0.9262 l 0,-43.53444 c 2.155323,-4.28684 1.973445,-8.31372 0.141803,-11.68516 -1.870087,-3.44174 -5.283531,-6.21354 -9.430547,-8.40762 -8.293783,-4.38816 -19.549169,-6.59072 -27.79494,-6.59072 z m 0,2.28003 c 7.833614,0 18.915873,2.20631 26.731487,6.34135 3.90763,2.06752 6.963024,4.60109 8.50865,7.44573 1.545413,2.84463 1.737602,5.97808 -0.283607,9.83264 -0.08964,0.16292 -0.138862,0.3482 -0.141803,0.53439 l 0,43.1781 -18.364677,13.039 0,-44.49631 8.331484,-4.45319 c 1.493185,-0.94972 0.401245,-2.75511 -1.063594,-2.03065 l -5.636941,3.02817 c 0.41524,-1.17086 0.638043,-2.39865 0.638043,-3.63381 0,-5.44461 -4.084936,-10.15664 -10.245791,-13.46644 -6.160854,-3.3098 -14.53996,-5.30821 -23.788877,-5.30821 -7.82511,0 -15.008244,1.43825 -20.775188,3.88319 2.888078,-3.62107 7.391303,-6.75559 12.798389,-9.12014 6.896197,-3.01574 15.213259,-4.77382 23.292425,-4.77382 z m -15.315626,12.2908 c 8.920949,0 16.987393,1.94061 22.725283,5.0232 5.737925,3.08259 9.040393,7.18101 9.040393,11.47141 0,1.85551 -0.680456,3.79637 -1.878909,5.52196 -0.326976,0.47685 -0.383031,0.60627 -0.390047,1.06876 l 0,46.06378 -59.028802,0 0,-45.88564 c -0.01134,-0.54715 -0.118311,-0.85536 -0.319004,-1.14003 -1.2727921,-1.82395 -1.9145911,-3.69074 -1.9145911,-5.62883 0,-4.28883 3.2921931,-8.38847 9.0405361,-11.47141 5.7482,-3.08295 13.804547,-5.0232 22.725141,-5.0232 z" fill="#000000" fill-opacity="1" fill-rule="evenodd" stroke="none" marker="none" visibility="visible" display="inline" overflow="visible"/><path style="text-indent:0;text-transform:none;direction:ltr;block-progression:tb;baseline-shift:baseline;color:#000000;enable-background:accumulate;" d="m 86.010958,987.47686 a 1.1346019,1.1401305 0 0 0 -0.509988,0.14012 l -1.205965,0.6463 a 1.1346416,1.1401704 0 1 0 1.06774,2.01215 l 1.205965,-0.64631 a 1.1346019,1.1401305 0 0 0 -0.557752,-2.15225 z" fill="#000000" fill-opacity="1" fill-rule="evenodd" stroke="none" marker="none" visibility="visible" display="inline" overflow="visible"/><path style="text-indent:0;text-transform:none;direction:ltr;block-progression:tb;baseline-shift:baseline;color:#000000;enable-background:accumulate;" d="m 40.034636,978.84931 c -6.844358,0 -13.036039,1.15866 -17.619944,3.13504 -2.292024,0.9882 -4.193752,2.19865 -5.56604,3.59818 -1.3725,1.39954 -2.198197,3.04223 -2.198197,4.84507 0,1.57097 0.6705,3.0371 1.737249,4.31069 l 0,40.64871 c 0,0.5969 0.540496,1.14 1.134496,1.1401 l 44.989617,0 c 0.594035,-10e-5 1.134389,-0.5432 1.134496,-1.1401 l 0.03515,-40.61308 c 1.085705,-1.29166 1.737142,-2.78 1.737142,-4.34632 0,-1.80283 -0.861874,-3.44557 -2.233453,-4.84507 -1.371615,-1.39949 -3.276639,-2.60995 -5.566146,-3.59817 -4.578803,-1.97645 -10.759713,-3.13504 -17.584583,-3.13504 z m 0,2.28003 c 6.561319,0 12.503905,1.14641 16.69833,2.95692 2.097213,0.90525 3.775359,1.99573 4.856953,3.09942 1.081878,1.10369 1.559941,2.15657 1.559941,3.24192 0,1.00069 -0.404008,2.047 -1.311697,3.0638 -0.349441,0.39684 -0.419776,0.61052 -0.425445,0.92626 l -0.03515,39.82934 -42.720661,0 0,-39.68684 c -0.01134,-0.54175 -0.130358,-0.75086 -0.389905,-1.10438 -0.905103,-1.01922 -1.347343,-2.05588 -1.347343,-3.02818 0,-1.08534 0.477744,-2.13827 1.559941,-3.24192 1.082303,-1.10365 2.757366,-2.19413 4.857094,-3.09942 4.199422,-1.81058 10.116461,-2.95692 16.698189,-2.95692 z" fill="#000000" fill-opacity="1" fill-rule="evenodd" stroke="none" marker="none" visibility="visible" display="inline" overflow="visible"/></g><text x="0" y="115" fill="#000000" font-size="5px" font-weight="bold" font-family="'Helvetica Neue', Helvetica, Arial-Unicode, Arial, Sans-serif">Created by Danishicon</text><text x="0" y="120" fill="#000000" font-size="5px" font-weight="bold" font-family="'Helvetica Neue', Helvetica, Arial-Unicode, Arial, Sans-serif">from the Noun Project</text></svg>